# xmcd
#
# Track frame offsets:
#	150
#	23656
#	53063
#	78427
#	103550
#	121583
#	142545
#
# Disc length: 2253 seconds
#
# Revision: 12
# Processed by: cddbd v1.5.2PL0 Copyright (c) Steve Scherf et al.
# Submitted via: audiograbber 1.83.01
#
DISCID=4308cb07
DTITLE=Foghat - The Complete Bearsville Albums Collection [CD 06) - Night Shift
DTITLE=[remastered 2016]
DYEAR=1976
DGENRE=Rock
TTITLE0=Drivin' Wheel
TTITLE1=Don't Run Me Down
TTITLE2=Burnin' The Midnight Oil
TTITLE3=Night Shift
TTITLE4=Hot Shot Love
TTITLE5=Take Me To The River
TTITLE6=I'll Be Standing By
EXTD=
EXTT0=
EXTT1=
EXTT2=
EXTT3=
EXTT4=
EXTT5=
EXTT6=
PLAYORDER=
